{
  "accessors": [
    {
      "bufferView": 2,
      "componentType": 5126,
      "count": 1442,
      "max": [
        74.71558380126953,
        14.868341445922852,
        220.21673583984375
      ],
      "min": [
        -74.71703338623047,
        -2.4886107444763184,
        7.62939453125e-06
      ],
      "type": "VEC3"
    },
    {
      "bufferView": 2,
      "byteOffset": 17304,
      "componentType": 5126,
      "count": 1442,
      "max": [
        1.0,
        1.0,
        1.0
      ],
      "min": [
        -1.0,
        -1.0,
        -1.0
      ],
      "type": "VEC3"
    },
    {
      "bufferView": 3,
      "componentType": 5126,
      "count": 1442,
      "max": [
        1.0,
        0.1885557621717453,
        1.0,
        1.0
      ],
      "min": [
        -1.0,
        -0.1885560303926468,
        -1.0,
        1.0
      ],
      "type": "VEC4"
    },
    {
      "bufferView": 1,
      "componentType": 5126,
      "count": 1442,
      "max": [
        0.9970703125,
        0.9995002746582031
      ],
      "min": [
        0.000499725341796875,
        0.0009765625
      ],
      "type": "VEC2"
    },
    {
      "bufferView": 1,
      "byteOffset": 11536,
      "componentType": 5126,
      "count": 1442,
      "max": [
        0.99169921875,
        0.9919357299804688
      ],
      "min": [
        0.00806427001953125,
        0.0234375
      ],
      "type": "VEC2"
    },
    {
      "bufferView": 0,
      "componentType": 5125,
      "count": 2172,
      "type": "SCALAR"
    },
    {
      "bufferView": 2,
      "byteOffset": 34608,
      "componentType": 5126,
      "count": 9180,
      "max": [
        112.77909088134766,
        42.829322814941406,
        260.1783142089844
      ],
      "min": [
        -112.7792739868164,
        -29.932600021362305,
        0.0016385986236855388
      ],
      "type": "VEC3"
    },
    {
      "bufferView": 2,
      "byteOffset": 144768,
      "componentType": 5126,
      "count": 9180,
      "max": [
        1.0,
        1.0,
        1.0
      ],
      "min": [
        -1.0,
        -1.0,
        -1.0
      ],
      "type": "VEC3"
    },
    {
      "bufferView": 3,
      "byteOffset": 23072,
      "componentType": 5126,
      "count": 9180,
      "max": [
        1.0,
        0.6914329528808594,
        1.0,
        1.0
      ],
      "min": [
        -1.0,
        -0.9877851605415344,
        -1.0,
        -1.0
      ],
      "type": "VEC4"
    },
    {
      "bufferView": 1,
      "byteOffset": 23072,
      "componentType": 5126,
      "count": 9180,
      "max": [
        0.9990234375,
        0.9879989624023438
      ],
      "min": [
        0.000499725341796875,
        0.0009765625
      ],
      "type": "VEC2"
    },
    {
      "bufferView": 1,
      "byteOffset": 96512,
      "componentType": 5126,
      "count": 9180,
      "max": [
        0.98388671875,
        0.9919357299804688
      ],
      "min": [
        0.00806427001953125,
        0.02392578125
      ],
      "type": "VEC2"
    },
    {
      "bufferView": 0,
      "byteOffset": 8688,
      "componentType": 5125,
      "count": 9180,
      "type": "SCALAR"
    }
  ],
  "asset": {
    "extras": {
      "author": "Xavi Pujadas (https://sketchfab.com/XaviPujadas)",
      "license": "CC-BY-NC-ND-4.0 (http://creativecommons.org/licenses/by-nc-nd/4.0/)",
      "source": "https://sketchfab.com/3d-models/sci-fi-door-5e85766baf33419e8e742a0c514fa487",
      "title": "Sci-Fi Door"
    },
    "generator": "Sketchfab-12.68.0",
    "version": "2.0"
  },
  "bufferViews": [
    {
      "buffer": 0,
      "byteLength": 45408,
      "name": "floatBufferViews",
      "target": 34963
    },
    {
      "buffer": 0,
      "byteLength": 169952,
      "byteOffset": 45408,
      "byteStride": 8,
      "name": "floatBufferViews",
      "target": 34962
    },
    {
      "buffer": 0,
      "byteLength": 254928,
      "byteOffset": 215360,
      "byteStride": 12,
      "name": "floatBufferViews",
      "target": 34962
    },
    {
      "buffer": 0,
      "byteLength": 169952,
      "byteOffset": 470288,
      "byteStride": 16,
      "name": "floatBufferViews",
      "target": 34962
    }
  ],
  "buffers": [
    {
      "byteLength": 640240,
      "uri": "scene.bin"
    }
  ],
  "images": [
    {
      "uri": "textures/Puerta_baseColor.png"
    },
    {
      "uri": "textures/Puerta_metallicRoughness.png"
    },
    {
      "uri": "textures/Puerta_emissive.png"
    },
    {
      "uri": "textures/Puerta_normal.png"
    },
    {
      "uri": "textures/Marco_Puerta_baseColor.png"
    },
    {
      "uri": "textures/Marco_Puerta_metallicRoughness.png"
    },
    {
      "uri": "textures/Marco_Puerta_emissive.png"
    },
    {
      "uri": "textures/Marco_Puerta_normal.png"
    }
  ],
  "materials": [
    {
      "doubleSided": true,
      "emissiveFactor": [
        1.0,
        1.0,
        1.0
      ],
      "emissiveTexture": {
        "index": 2
      },
      "name": "Puerta",
      "normalTexture": {
        "index": 3
      },
      "occlusionTexture": {
        "index": 1
      },
      "pbrMetallicRoughness": {
        "baseColorTexture": {
          "index": 0
        },
        "metallicFactor": 0.0,
        "metallicRoughnessTexture": {
          "index": 1
        },
        "roughnessFactor": 0.6
      }
    },
    {
      "doubleSided": true,
      "emissiveFactor": [
        1.0,
        1.0,
        1.0
      ],
      "emissiveTexture": {
        "index": 6
      },
      "name": "Marco_Puerta",
      "normalTexture": {
        "index": 7
      },
      "occlusionTexture": {
        "index": 5
      },
      "pbrMetallicRoughness": {
        "baseColorTexture": {
          "index": 4
        },
        "metallicFactor": 0.0,
        "metallicRoughnessTexture": {
          "index": 5
        },
        "roughnessFactor": 0.6
      }
    }
  ],
  "meshes": [
    {
      "name": "Puerta_Puerta_0",
      "primitives": [
        {
          "attributes": {
            "NORMAL": 1,
            "POSITION": 0,
            "TANGENT": 2,
            "TEXCOORD_0": 3,
            "TEXCOORD_1": 4
          },
          "indices": 5,
          "material": 0,
          "mode": 4
        }
      ]
    },
    {
      "name": "Puerta_Marco_Puerta_0",
      "primitives": [
        {
          "attributes": {
            "NORMAL": 7,
            "POSITION": 6,
            "TANGENT": 8,
            "TEXCOORD_0": 9,
            "TEXCOORD_1": 10
          },
          "indices": 11,
          "material": 1,
          "mode": 4
        }
      ]
    }
  ],
  "nodes": [
    {
      "children": [
        1
      ],
      "matrix": [
        1.0,
        0.0,
        0.0,
        0.0,
        0.0,
        2.220446049250313e-16,
        -1.0,
        0.0,
        0.0,
        1.0,
        2.220446049250313e-16,
        0.0,
        0.0,
        0.0,
        0.0,
        1.0
      ],
      "name": "Sketchfab_model"
    },
    {
      "children": [
        2
      ],
      "matrix": [
        1.0,
        0.0,
        0.0,
        0.0,
        0.0,
        0.0,
        1.0,
        0.0,
        0.0,
        -1.0,
        0.0,
        0.0,
        0.0,
        0.0,
        0.0,
        1.0
      ],
      "name": "ced58e57a1a84040bd2d0b71a6de37d3.fbx"
    },
    {
      "children": [
        3
      ],
      "name": "RootNode"
    },
    {
      "children": [
        4,
        5
      ],
      "matrix": [
        1.0,
        0.0,
        0.0,
        0.0,
        0.0,
        2.220446049250313e-16,
        -1.0,
        0.0,
        0.0,
        1.0,
        2.220446049250313e-16,
        0.0,
        -2.8186650524730794e-07,
        0.0,
        0.0,
        1.0
      ],
      "name": "Puerta"
    },
    {
      "mesh": 0,
      "name": "Puerta_Puerta_0"
    },
    {
      "mesh": 1,
      "name": "Puerta_Marco_Puerta_0"
    }
  ],
  "samplers": [
    {
      "magFilter": 9729,
      "minFilter": 9987,
      "wrapS": 10497,
      "wrapT": 10497
    }
  ],
  "scene": 0,
  "scenes": [
    {
      "name": "Sketchfab_Scene",
      "nodes": [
        0
      ]
    }
  ],
  "textures": [
    {
      "sampler": 0,
      "source": 0
    },
    {
      "sampler": 0,
      "source": 1
    },
    {
      "sampler": 0,
      "source": 2
    },
    {
      "sampler": 0,
      "source": 3
    },
    {
      "sampler": 0,
      "source": 4
    },
    {
      "sampler": 0,
      "source": 5
    },
    {
      "sampler": 0,
      "source": 6
    },
    {
      "sampler": 0,
      "source": 7
    }
  ]
}
